name Walk8.mot
datacolumns 19
datarows 10
range 1.53000000 1.57500000
endheader

                time	   L_ground_force_vx	   L_ground_force_vy	   L_ground_force_vz	   L_ground_force_px	   L_ground_force_py	   L_ground_force_pz	   R_ground_force_vx	   R_ground_force_vy	   R_ground_force_vz	   R_ground_force_px	   R_ground_force_py	   R_ground_force_pz	   L_ground_torque_x	   L_ground_torque_y	   L_ground_torque_z	   R_ground_torque_x	   R_ground_torque_y	   R_ground_torque_z	
          1.53000000	         18.20861092	        614.24988821	         37.41453892	         -0.19388258	          0.00000000	         -0.03402858	         -0.06318571	          0.34618416	         -0.01405227	          0.00031859	          0.00000000	          0.00014732	          0.00000000	         -1.41565986	          0.00000000	          0.00000000	         -0.00016690	          0.00000000	
          1.53500000	         18.70216812	        617.42574697	         38.17062367	         -0.19058101	          0.00000000	         -0.03428839	         -0.07542790	          0.42813193	         -0.01644717	          0.00034974	          0.00000000	          0.00016129	          0.00000000	         -1.42789087	          0.00000000	          0.00000000	         -0.00025923	          0.00000000	
          1.54000000	         19.18513693	        620.82389983	         38.95607341	         -0.18717583	          0.00000000	         -0.03457052	         -0.08521574	          0.50311895	         -0.01815333	          0.00035518	          0.00000000	          0.00016317	          0.00000000	         -1.44250748	          0.00000000	          0.00000000	         -0.00037123	          0.00000000	
          1.54500000	         19.66602027	        624.48773440	         39.78441422	         -0.18367990	          0.00000000	         -0.03487732	         -0.08996921	          0.55800348	         -0.01857506	          0.00031987	          0.00000000	          0.00014598	          0.00000000	         -1.45875952	          0.00000000	          0.00000000	         -0.00050009	          0.00000000	
          1.55000000	         20.15877912	        628.48940595	         40.66604869	         -0.18011133	          0.00000000	         -0.03520950	         -0.08628594	          0.57477180	         -0.01694188	          0.00022535	          0.00000000	          0.00010117	          0.00000000	         -1.47566925	          0.00000000	          0.00000000	         -0.00063937	          0.00000000	
          1.55500000	         20.68571260	        632.92422960	         41.60606017	         -0.17649482	          0.00000000	         -0.03556549	         -0.06990085	          0.53003448	         -0.01230571	          0.00005017	          0.00000000	          0.00001881	          0.00000000	         -1.49222927	          0.00000000	          0.00000000	         -0.00077771	          0.00000000	
          1.56000000	         21.27971573	        637.89581022	         42.60275928	         -0.17286138	          0.00000000	         -0.03594046	         -0.03572953	          0.39490388	         -0.00355853	         -0.00022919	          0.00000000	         -0.00011192	          0.00000000	         -1.50745158	          0.00000000	          0.00000000	         -0.00089752	          0.00000000	
          1.56500000	         21.98578002	        643.50269577	         43.64774997	         -0.16924856	          0.00000000	         -0.03632524	          0.02196299	          0.13548123	          0.01052051	         -0.00063655	          0.00000000	         -0.00030199	          0.00000000	         -1.52025305	          0.00000000	          0.00000000	         -0.00097365	          0.00000000	
          1.57000000	         22.86007096	        649.82770491	         44.72695509	         -0.16569993	          0.00000000	         -0.03670868	          0.10921888	         -0.28576583	          0.03117761	         -0.00119328	          0.00000000	         -0.00056113	          0.00000000	         -1.52973588	          0.00000000	          0.00000000	         -0.00097229	          0.00000000	
          1.57500000	         23.96637663	        656.92685140	         45.82292944	         -0.16226211	          0.00000000	         -0.03707976	          0.23181418	         -0.90740700	          0.05954480	         -0.00191427	          0.00000000	         -0.00089603	          0.00000000	         -1.53528650	          0.00000000	          0.00000000	         -0.00085027	          0.00000000	
